<?xml version="1.0" encoding="UTF-8"?>
<svg width="16" height="16" viewBox="0 0 16 16" xmlns="http://www.w3.org/2000/svg">
  <g fill="#241f31">
    <path d="M 2.2 1 C 1 1 0 2 0 3.2 V 12.8 C 0 14 1 15 2.2 15 H 13.8 C 15 15 16 14 16 12.8 V 3.2 C 16 2 15 1 13.8 1 Z M 2.2 3 H 13.8 C 13.9 3 14 3.1 14 3.2 V 12.8 C 14 12.9 13.9 13 13.8 13 H 2.2 C 2.1 13 2 12.9 2 12.8 V 3.2 C 2 3.1 2.1 3 2.2 3 Z"/>
    <path d="M 3.5 5.5 L 6 8 L 3.5 10.5" fill="none" stroke="#241f31" stroke-width="1.2" stroke-linecap="round" stroke-linejoin="round"/>
    <line x1="7" y1="10.5" x2="12" y2="10.5" stroke="#241f31" stroke-width="1.2" stroke-linecap="round"/>
  </g>
</svg>
